<svg width="47" height="47" viewBox="0 0 47 47" fill="none" xmlns="http://www.w3.org/2000/svg">
<circle cx="23.5" cy="23.5" r="22.5" stroke="white"/>
<g clip-path="url(#clip0_2_169)">
<path d="M23.5051 17.6601C20.2399 17.6601 17.6062 20.2652 17.6062 23.4949C17.6062 26.7246 20.2399 29.3297 23.5051 29.3297C26.7703 29.3297 29.404 26.7246 29.404 23.4949C29.404 20.2652 26.7703 17.6601 23.5051 17.6601ZM23.5051 27.2883C21.395 27.2883 19.67 25.5871 19.67 23.4949C19.67 21.4027 21.3899 19.7015 23.5051 19.7015C25.6203 19.7015 27.3401 21.4027 27.3401 23.4949C27.3401 25.5871 25.6151 27.2883 23.5051 27.2883ZM31.0211 17.4215C31.0211 18.1781 30.4051 18.7824 29.6453 18.7824C28.8803 18.7824 28.2694 18.173 28.2694 17.4215C28.2694 16.6699 28.8854 16.0605 29.6453 16.0605C30.4051 16.0605 31.0211 16.6699 31.0211 17.4215ZM34.9281 18.8027C34.8408 16.9797 34.4198 15.3648 33.0696 14.0344C31.7245 12.7039 30.0919 12.2875 28.2488 12.1961C26.3493 12.0894 20.6557 12.0894 18.7562 12.1961C16.9182 12.2824 15.2857 12.6988 13.9354 14.0293C12.5852 15.3597 12.1694 16.9746 12.077 18.7976C11.9691 20.6765 11.9691 26.3082 12.077 28.1871C12.1642 30.0101 12.5852 31.625 13.9354 32.9554C15.2857 34.2859 16.9131 34.7023 18.7562 34.7937C20.6557 34.9004 26.3493 34.9004 28.2488 34.7937C30.0919 34.7074 31.7245 34.291 33.0696 32.9554C34.4147 31.625 34.8357 30.0101 34.9281 28.1871C35.0359 26.3082 35.0359 20.6816 34.9281 18.8027ZM32.4741 30.2031C32.0736 31.1984 31.2984 31.9652 30.287 32.3664C28.7725 32.9605 25.1787 32.8234 23.5051 32.8234C21.8314 32.8234 18.2325 32.9554 16.7232 32.3664C15.7169 31.9703 14.9417 31.2035 14.5361 30.2031C13.9354 28.7051 14.0741 25.1504 14.0741 23.4949C14.0741 21.8394 13.9406 18.2797 14.5361 16.7867C14.9366 15.7914 15.7118 15.0246 16.7232 14.6234C18.2377 14.0293 21.8314 14.1664 23.5051 14.1664C25.1787 14.1664 28.7776 14.0344 30.287 14.6234C31.2932 15.0195 32.0685 15.7863 32.4741 16.7867C33.0747 18.2847 32.9361 21.8394 32.9361 23.4949C32.9361 25.1504 33.0747 28.7101 32.4741 30.2031Z" fill="white"/>
</g>
<defs>
<clipPath id="clip0_2_169">
<rect width="23" height="26" fill="white" transform="translate(12 10.5)"/>
</clipPath>
</defs>
</svg>
