<svg width="47" height="47" viewBox="0 0 47 47" fill="none" xmlns="http://www.w3.org/2000/svg">
<circle cx="23.5" cy="23.5" r="22.5" stroke="white"/>
<g clip-path="url(#clip0_2_166)">
<path d="M30.6508 19.6295C30.6613 19.7965 30.6613 19.9672 30.6613 20.1342C30.6613 25.2812 26.9488 31.215 20.1637 31.215C18.0719 31.215 16.1313 30.5768 14.5 29.4672C14.7953 29.5043 15.0836 29.5154 15.3895 29.5154C17.1156 29.5154 18.7012 28.8994 19.9703 27.8529C18.3496 27.8158 16.9891 26.6951 16.5215 25.1514C16.75 25.1885 16.9785 25.2107 17.2176 25.2107C17.548 25.2107 17.8785 25.1625 18.1879 25.0771C16.4969 24.7172 15.2312 23.1475 15.2312 21.2549V21.2066C15.7234 21.4961 16.293 21.6779 16.8977 21.7002C15.9027 21.0025 15.2523 19.8076 15.2523 18.4568C15.2523 17.7332 15.4352 17.0689 15.7551 16.49C17.5727 18.8539 20.3008 20.3977 23.3629 20.5646C23.3066 20.2752 23.2715 19.9746 23.2715 19.674C23.2715 17.5291 24.9168 15.7812 26.9594 15.7812C28.0211 15.7812 28.9809 16.2525 29.6559 17.0096C30.4891 16.8426 31.2906 16.516 31.9973 16.0707C31.723 16.9762 31.1395 17.7332 30.3766 18.2156C31.1184 18.1303 31.8391 17.915 32.5 17.6145C31.9973 18.3863 31.368 19.0729 30.6508 19.6295Z" fill="white"/>
</g>
<defs>
<clipPath id="clip0_2_166">
<rect width="18" height="19" fill="white" transform="translate(14.5 14)"/>
</clipPath>
</defs>
</svg>
